<?xml version="1.0" standalone="no"?>
<!DOCTYPE svg PUBLIC "-//W3C//DTD SVG 20010904//EN"
 "http://www.w3.org/TR/2001/REC-SVG-20010904/DTD/svg10.dtd">
<svg version="1.0" xmlns="http://www.w3.org/2000/svg"
 width="675.000000pt" height="154.000000pt" viewBox="0 0 675.000000 154.000000"
 preserveAspectRatio="xMidYMid meet">
<metadata>
Created by potrace 1.16, written by Peter Selinger 2001-2019
</metadata>
<g transform="translate(0.000000,154.000000) scale(0.100000,-0.100000)"
fill="#000000" stroke="none">
<path d="M430 1425 c0 -12 -13 -15 -61 -15 -52 0 -62 -3 -66 -20 -3 -11 -14
-20 -24 -20 -12 0 -19 -7 -19 -20 0 -13 -7 -20 -20 -20 -16 0 -20 -7 -20 -35
0 -30 3 -35 24 -35 14 0 30 10 39 24 9 13 38 34 64 47 41 21 61 24 143 22 120
-2 150 -12 150 -52 0 -16 -3 -32 -8 -34 -4 -3 -38 2 -75 10 -88 20 -129 12
-162 -31 -19 -25 -24 -41 -19 -60 3 -14 12 -26 20 -26 8 0 14 -9 14 -19 0 -17
83 -81 104 -81 17 0 124 -83 146 -113 35 -47 35 -149 0 -200 -40 -58 -98 -81
-215 -85 -55 -1 -120 1 -145 5 -42 8 -45 11 -48 42 -2 18 0 37 5 42 5 5 31 2
58 -7 59 -17 155 -20 183 -5 32 17 65 78 58 106 -10 37 -52 81 -114 117 -146
83 -192 131 -192 203 0 59 -14 85 -45 85 -25 0 -25 -2 -25 -81 0 -72 2 -81 20
-86 15 -4 20 -14 20 -40 0 -26 5 -36 19 -40 11 -3 21 -13 24 -24 4 -14 14 -19
41 -19 26 0 36 -4 36 -16 0 -9 9 -18 19 -21 11 -3 21 -13 24 -24 4 -14 14 -19
41 -19 26 0 36 -4 36 -16 0 -9 9 -18 20 -21 11 -3 20 -12 20 -19 0 -11 -21
-14 -94 -14 -85 0 -94 2 -99 20 -4 15 -14 20 -42 20 -28 0 -38 -5 -42 -20 -3
-11 -14 -20 -24 -20 -17 0 -19 -8 -19 -81 0 -71 2 -81 19 -86 11 -3 21 -13 24
-24 4 -17 15 -19 80 -19 57 0 76 -4 81 -15 4 -13 -8 -15 -79 -15 l-85 0 0 -34
0 -34 127 1 c114 2 128 0 131 -15 3 -16 -5 -18 -66 -18 -75 0 -92 -12 -72 -51
9 -15 22 -19 70 -19 l60 0 0 -50 0 -50 -66 0 -65 0 3 -27 c3 -27 5 -28 71 -31
l68 -3 -3 -42 -3 -41 -90 -1 c-49 -1 -94 2 -100 5 -5 4 -22 10 -37 12 -26 5
-28 3 -28 -26 0 -60 1 -61 210 -64 183 -3 192 -2 197 16 3 11 13 22 24 25 11
3 19 14 19 26 0 29 27 26 34 -4 4 -14 13 -25 20 -25 8 0 16 -9 19 -20 7 -29
77 -29 84 0 7 26 29 26 36 0 7 -27 74 -29 84 -2 3 9 14 25 25 35 12 12 18 32
18 62 l0 45 56 0 c47 0 57 3 61 20 3 11 12 20 20 20 10 0 13 10 11 38 -2 31
-6 36 -23 34 -11 -2 -27 -12 -35 -22 -10 -12 -35 -19 -74 -23 -32 -3 -61 -8
-64 -12 -3 -3 -8 -35 -10 -70 -5 -70 -21 -89 -47 -52 -12 17 -15 52 -15 162 0
181 -1 179 110 173 70 -4 86 -8 101 -26 21 -27 56 -28 64 -3 7 24 86 36 177
28 47 -4 64 -11 83 -31 13 -14 31 -26 38 -26 8 0 17 -10 21 -23 8 -34 -4 -67
-24 -67 -10 0 -20 -6 -23 -14 -9 -24 4 -56 23 -56 21 0 33 -50 24 -99 -6 -31
-9 -33 -38 -27 -17 3 -41 8 -53 12 -32 9 -44 -23 -17 -45 11 -9 23 -24 27 -34
10 -26 77 -24 84 3 7 26 29 26 36 0 5 -19 14 -20 142 -20 123 0 137 2 142 18
5 20 43 48 43 32 0 -5 6 -10 14 -10 7 0 16 -9 19 -20 5 -18 14 -20 82 -20 67
0 78 2 82 19 5 20 46 29 114 23 27 -2 38 -9 42 -23 5 -17 14 -19 82 -19 68 0
77 2 82 20 3 11 12 20 20 20 8 0 17 9 20 19 3 11 13 21 24 24 17 5 19 15 19
82 0 68 -2 77 -20 82 -26 7 -26 25 1 41 30 19 24 102 -9 118 -13 6 -23 14 -23
18 2 20 0 26 -13 26 -7 0 -16 9 -19 20 -5 18 -14 20 -102 20 -88 0 -97 -2
-102 -20 -3 -11 -12 -20 -20 -20 -8 0 -12 -4 -9 -9 4 -5 -5 -4 -18 2 -14 7
-27 20 -30 29 -3 14 -14 18 -45 18 -30 0 -41 4 -41 15 0 12 14 15 70 15 58 0
73 4 87 20 10 11 23 20 31 20 7 0 16 8 19 18 4 9 15 23 25 30 13 10 18 26 18
63 0 46 -2 49 -25 49 -19 0 -28 -8 -39 -33 -17 -43 -94 -94 -153 -103 -73 -11
-177 1 -224 25 -69 36 -96 71 -108 136 -16 83 -15 487 1 503 13 13 68 16 106
5 l24 -6 -4 -259 c-3 -226 -1 -261 13 -271 8 -7 18 -20 22 -30 21 -56 189 -49
203 9 3 13 10 24 14 24 19 0 25 51 30 285 l5 250 48 3 c43 3 48 1 58 -25 6
-16 10 -101 9 -203 -2 -237 -2 -234 13 -254 13 -17 14 -17 30 -1 15 14 17 41
17 201 0 150 3 184 14 184 7 0 16 -9 19 -20 5 -19 14 -20 120 -20 108 0 117 2
131 22 27 38 5 47 -112 50 l-107 3 0 30 0 30 295 3 c162 1 305 0 318 -3 15 -4
22 -13 22 -30 0 -14 -3 -26 -7 -26 -5 -1 -60 -4 -123 -8 l-115 -6 -3 -27 c-4
-36 13 -40 153 -36 104 3 110 4 113 25 2 12 10 24 18 27 12 5 14 -37 14 -294
0 -277 1 -300 18 -312 10 -7 21 -21 25 -31 6 -16 18 -17 104 -15 l98 3 3 158
3 157 94 0 95 0 0 -150 c0 -180 -7 -172 142 -168 l103 3 0 400 0 400 -120 0
-120 0 -3 -137 -3 -138 -94 0 -94 0 -3 138 -3 137 -98 3 c-91 3 -99 1 -104
-17 -9 -36 -67 -36 -76 0 -5 18 -18 19 -342 19 -323 0 -337 -1 -342 -19 -9
-34 -67 -34 -76 0 -5 17 -14 19 -82 19 -67 0 -77 -2 -82 -19 -3 -11 -13 -21
-24 -24 -18 -5 -19 -18 -19 -281 l0 -276 -75 0 -75 0 0 265 c0 243 -1 266 -18
282 -11 10 -22 26 -25 36 -6 15 -20 17 -107 17 l-100 0 0 -339 c0 -324 1 -340
19 -346 10 -3 21 -15 24 -25 3 -11 12 -20 21 -20 9 0 16 -7 16 -16 0 -9 9 -18
19 -21 11 -3 21 -13 24 -23 4 -16 17 -20 83 -22 51 -2 79 -7 82 -15 2 -9 -10
-13 -42 -13 -39 0 -46 -3 -46 -20 0 -11 -6 -20 -14 -20 -7 0 -16 9 -19 20 -5
19 -14 20 -162 20 -148 0 -157 -1 -162 -20 -3 -11 -11 -20 -18 -20 -7 0 -15 9
-18 20 -5 18 -14 20 -111 20 -90 0 -105 2 -100 15 5 11 22 15 66 15 51 0 61 3
65 20 4 15 14 20 40 20 26 0 36 5 40 20 3 11 12 20 20 20 8 0 17 9 20 19 3 11
13 21 24 24 14 4 19 14 19 40 0 26 5 36 19 40 17 4 19 17 19 202 0 185 -2 198
-19 202 -14 4 -19 14 -19 40 0 26 -5 36 -19 40 -11 3 -21 13 -24 24 -3 10 -12
19 -20 19 -8 0 -17 9 -20 20 -4 15 -14 20 -40 20 -26 0 -36 5 -40 20 -5 19
-14 20 -202 20 -188 0 -197 -1 -202 -20 -3 -11 -12 -20 -20 -20 -8 0 -17 -9
-20 -19 -3 -11 -13 -21 -24 -24 -10 -3 -19 -12 -19 -20 0 -8 -9 -17 -20 -20
-15 -4 -20 -14 -20 -40 0 -26 -5 -36 -20 -40 -16 -4 -20 -14 -20 -51 0 -42 2
-46 24 -46 27 0 48 43 39 79 -4 14 -1 21 9 21 8 0 29 17 46 39 67 83 199 124
329 101 153 -26 239 -111 263 -258 24 -149 -10 -276 -95 -354 -67 -60 -109
-73 -240 -73 -115 0 -122 1 -170 29 -27 17 -66 47 -86 68 -19 21 -43 38 -52
38 -14 0 -16 4 -8 19 14 25 -4 77 -29 84 -26 7 -30 0 -30 -51 0 -35 4 -45 20
-49 15 -4 20 -14 20 -40 0 -26 5 -36 19 -40 11 -3 21 -13 24 -24 3 -10 12 -19
20 -19 8 0 17 -9 20 -20 3 -11 12 -20 20 -20 8 0 17 -9 20 -20 5 -18 14 -20
76 -20 60 0 74 -3 95 -24 29 -26 34 -46 12 -46 -7 0 -16 9 -19 20 -5 19 -14
20 -200 20 -211 0 -207 1 -207 -56 0 -30 -30 -33 -37 -4 -3 11 -11 20 -18 20
-7 0 -15 9 -18 20 -4 17 -14 20 -71 20 -54 0 -64 3 -60 15 5 11 22 15 66 15
51 0 61 3 65 20 3 11 11 20 18 20 8 0 17 9 20 20 3 11 12 20 20 20 8 0 16 9
20 19 3 10 15 21 25 24 18 5 20 14 20 122 0 107 -2 117 -19 122 -11 3 -21 13
-24 24 -3 10 -12 19 -20 19 -8 0 -17 9 -20 20 -3 11 -12 20 -20 20 -8 0 -17 9
-20 20 -3 11 -12 20 -20 20 -8 0 -17 9 -20 20 -4 15 -14 20 -40 20 -26 0 -36
5 -40 20 -4 15 -14 20 -41 20 -25 0 -36 4 -36 15 0 12 24 15 138 17 l137 3 3
78 c3 71 1 79 -17 84 -10 3 -21 13 -24 24 -5 17 -15 19 -86 19 -65 0 -81 3
-81 15 0 10 -11 15 -35 15 -24 0 -35 -5 -35 -15z m2780 -111 c6 -14 10 -67 10
-117 0 -136 1 -137 154 -137 102 0 126 3 137 16 9 11 15 57 19 138 l5 121 48
3 c43 3 48 1 57 -23 6 -15 10 -146 10 -310 0 -164 -4 -295 -10 -310 -9 -24
-14 -26 -57 -23 l-48 3 -5 143 c-6 179 0 172 -161 172 -150 0 -149 1 -149
-155 0 -142 -9 -160 -73 -159 -26 0 -49 3 -52 6 -8 7 -7 636 0 648 4 6 29 10
56 10 44 0 51 -3 59 -26z m-1175 -824 c10 -8 15 -25 13 -44 -2 -25 -8 -32 -30
-34 -21 -3 -27 1 -30 20 -2 14 -13 26 -31 32 -37 13 -62 -3 -62 -40 0 -25 4
-29 28 -29 19 1 27 -4 27 -16 0 -11 13 -22 38 -29 92 -30 119 -101 60 -165
-28 -32 -36 -35 -84 -35 -61 0 -120 24 -127 51 -8 32 -53 24 -69 -11 -13 -29
-15 -30 -83 -30 -38 0 -86 -3 -107 -6 -56 -10 -68 23 -67 178 1 68 4 134 8
148 l7 25 122 -1 c115 -1 144 -6 130 -20 -4 -3 -46 -9 -94 -14 -68 -6 -91 -12
-101 -26 -22 -29 -12 -58 20 -62 15 -2 27 1 27 7 0 6 17 11 39 11 37 0 39 -2
44 -37 4 -20 5 -39 3 -41 -2 -2 -29 -4 -59 -5 -60 -3 -87 -18 -87 -51 0 -37
16 -53 39 -39 11 7 54 13 95 14 57 1 76 5 76 15 0 20 82 18 119 -3 17 -10 31
-26 31 -35 0 -11 8 -18 20 -18 11 0 20 6 20 14 0 7 7 26 15 42 15 30 6 54 -22
54 -27 0 -118 48 -131 69 -7 12 -21 21 -32 21 -17 0 -20 5 -17 28 2 17 11 28
23 30 10 2 26 13 35 25 28 35 154 40 194 7z m-1417 2 c9 -9 23 -30 30 -45 10
-23 18 -28 40 -25 20 2 28 9 30 27 4 27 40 62 60 58 8 -1 20 -17 27 -34 13
-31 13 -33 -6 -33 -12 0 -24 -11 -32 -27 -6 -16 -17 -32 -24 -36 -27 -17 -12
-87 18 -87 15 0 18 -5 14 -23 -4 -15 -1 -28 9 -36 16 -13 22 -62 10 -74 -4 -3
-18 3 -32 13 -13 11 -31 20 -38 20 -9 0 -14 11 -14 30 0 26 -4 30 -26 30 -23
0 -26 -3 -22 -30 4 -26 1 -30 -19 -30 -13 0 -31 -9 -40 -19 -9 -11 -20 -18
-25 -15 -11 7 -10 72 2 79 6 3 10 17 10 31 0 31 -39 34 -47 4 -3 -11 -14 -20
-24 -20 -24 0 -15 26 12 33 14 4 19 14 19 41 0 44 27 51 32 9 3 -31 41 -45 51
-19 7 17 -2 56 -13 56 -5 0 -13 14 -19 30 -7 21 -17 30 -32 30 -18 0 -20 4
-14 27 13 53 34 65 63 35z m1731 -11 c34 -28 35 -29 18 -54 l-17 -26 -34 20
c-19 11 -37 26 -40 34 -7 18 -47 20 -64 3 -7 -7 -12 -24 -12 -39 0 -28 7 -33
127 -84 36 -15 42 -22 45 -54 6 -45 -9 -101 -26 -101 -8 0 -19 -7 -26 -15 -8
-10 -31 -15 -70 -15 -37 0 -60 -5 -63 -12 -3 -7 -6 -4 -6 7 -1 28 -20 45 -49
45 -21 0 -23 3 -17 32 11 52 24 62 50 38 12 -11 28 -20 37 -20 9 0 18 -9 21
-20 3 -11 13 -20 24 -20 23 1 63 34 63 52 0 28 -31 58 -59 58 -16 0 -34 7 -41
15 -7 8 -20 15 -29 15 -9 0 -29 6 -44 13 -25 11 -27 17 -27 72 0 75 11 82 125
84 74 0 83 -2 114 -28z"/>
<path d="M4150 1425 c0 -12 -16 -15 -81 -15 -72 0 -81 -2 -86 -20 -4 -15 -14
-20 -40 -20 -26 0 -36 -5 -40 -20 -3 -11 -12 -20 -20 -20 -8 0 -17 -9 -20 -19
-3 -11 -13 -21 -24 -24 -14 -4 -19 -14 -19 -40 0 -26 -5 -36 -20 -40 -18 -4
-20 -14 -20 -75 0 -68 0 -69 25 -65 20 4 26 14 36 62 37 168 197 248 442 222
58 -7 104 -17 109 -24 11 -17 10 -55 -2 -62 -5 -3 -49 2 -97 11 -107 21 -163
14 -227 -26 -37 -24 -53 -43 -76 -94 -59 -126 -34 -282 57 -371 39 -38 85 -55
151 -55 67 0 82 22 82 123 0 51 5 88 12 95 18 18 95 15 102 -4 9 -22 7 -237
-2 -251 -12 -20 -139 -36 -243 -31 -80 4 -107 10 -153 32 -77 38 -136 109
-156 189 -13 51 -19 61 -37 62 -22 2 -23 -2 -23 -68 0 -60 2 -70 20 -74 15 -4
20 -14 20 -40 0 -26 5 -36 20 -40 11 -3 20 -12 20 -20 0 -8 9 -17 19 -20 11
-3 21 -13 24 -24 4 -14 14 -19 40 -19 26 0 36 -5 40 -20 5 -18 14 -20 80 -20
57 0 76 -4 81 -15 5 -13 -17 -15 -155 -15 -150 0 -161 -1 -166 -19 -3 -11 -13
-21 -24 -24 -10 -3 -19 -12 -19 -21 0 -9 -6 -16 -14 -16 -10 0 -16 13 -18 38
l-3 37 -60 0 c-58 0 -60 -1 -63 -27 -3 -23 1 -28 18 -28 30 0 60 -18 60 -35 0
-8 9 -15 20 -15 11 0 20 -4 20 -10 0 -5 -4 -10 -9 -10 -16 0 -21 -31 -5 -37
14 -5 74 50 74 69 0 4 5 8 12 8 6 0 19 7 28 15 17 16 50 11 50 -7 0 -16 -20
-47 -50 -78 -17 -17 -30 -37 -30 -45 0 -24 12 -45 26 -45 8 0 14 -8 14 -18 0
-11 9 -27 20 -37 11 -10 22 -26 25 -36 8 -25 42 -24 50 1 9 27 -3 60 -21 60
-8 0 -14 7 -14 16 0 9 -9 18 -20 21 -11 3 -20 11 -20 18 0 7 9 15 20 18 11 3
20 12 20 21 0 9 6 16 14 16 15 0 26 21 26 51 0 10 6 19 13 19 8 0 22 9 32 20
15 17 31 20 105 20 61 0 91 -4 99 -13 17 -21 3 -27 -60 -27 -78 0 -106 -29
-79 -81 13 -23 36 -25 44 -4 3 10 19 15 45 15 37 0 39 -1 43 -37 3 -21 3 -40
1 -42 -2 -3 -23 -4 -47 -2 -23 1 -55 -3 -70 -9 -24 -9 -27 -15 -24 -47 2 -31
7 -39 26 -41 12 -2 22 1 22 7 0 7 22 11 54 11 l53 0 6 -37 c4 -20 5 -39 2 -41
-2 -2 -47 -5 -99 -6 -89 -2 -98 0 -118 21 -26 28 -45 29 -53 3 -5 -17 -15 -20
-61 -20 -53 0 -54 0 -54 30 0 17 -4 30 -9 30 -5 0 -14 14 -21 30 -17 40 -49
63 -67 48 -15 -12 -18 -48 -3 -48 6 0 10 -11 10 -25 0 -16 -6 -25 -16 -25 -9
0 -24 -10 -33 -22 -10 -11 -29 -22 -42 -23 -20 -1 -24 -7 -24 -36 0 -32 2 -34
38 -37 31 -3 39 0 44 16 3 11 13 22 24 25 14 4 19 14 19 41 0 40 24 51 35 16
3 -11 10 -20 15 -20 12 0 56 -44 63 -64 10 -25 77 -22 84 4 7 26 29 26 36 0 5
-19 14 -20 140 -20 114 0 136 2 141 16 10 25 7 59 -6 72 -9 9 -9 12 0 12 8 0
11 10 8 27 -2 16 -5 32 -5 37 -1 4 -8 6 -16 2 -10 -3 -15 1 -15 13 0 11 9 21
21 24 19 5 20 12 17 64 l-3 58 38 -3 37 -4 0 -135 c0 -124 1 -135 19 -140 11
-3 21 -13 24 -24 7 -28 73 -27 82 1 3 11 12 20 20 20 21 0 25 25 25 156 l0
124 35 0 c34 0 35 1 35 40 0 45 1 44 -68 28 -61 -14 -62 -15 -62 -169 0 -80
-4 -121 -13 -134 -13 -17 -15 -17 -30 6 -13 18 -17 47 -17 132 0 123 -16 163
-68 169 -16 2 -27 9 -27 18 0 13 27 15 200 12 139 -3 202 -7 207 -15 9 -14 11
-278 2 -301 -4 -11 -20 -16 -53 -16 -51 0 -71 -13 -71 -45 0 -30 19 -45 56
-45 42 0 64 9 64 26 0 22 37 16 43 -6 7 -29 77 -29 84 0 3 11 11 20 18 20 15
0 25 22 25 55 0 14 7 25 20 28 23 6 28 45 6 53 -8 3 -16 19 -20 35 -7 35 -46
90 -58 83 -4 -3 -8 -47 -8 -98 0 -61 -4 -98 -13 -111 -13 -17 -15 -17 -30 6
-14 19 -17 49 -17 164 0 166 4 177 67 168 40 -5 43 -7 40 -36 -2 -25 2 -31 26
-38 25 -7 27 -5 27 23 0 21 -6 31 -19 35 -14 4 -21 15 -23 42 l-3 36 -307 3
c-267 2 -307 4 -302 17 5 12 25 15 86 15 70 0 80 2 85 19 3 11 13 21 24 24 18
5 19 16 19 182 0 167 -1 177 -20 182 -10 3 -22 14 -25 24 -6 16 -17 19 -82 19
-65 0 -76 -2 -80 -19 -3 -11 -13 -21 -24 -24 -17 -5 -19 -15 -19 -101 l0 -96
-55 0 c-44 0 -55 3 -55 16 0 9 -9 18 -19 21 -11 3 -21 13 -24 24 -3 10 -12 19
-21 19 -14 0 -16 16 -16 114 0 105 1 114 20 119 11 3 20 12 20 21 0 9 7 16 16
16 9 0 18 9 21 20 5 19 14 20 119 20 91 0 114 -3 114 -14 0 -30 75 -37 85 -7
3 10 15 21 25 24 18 5 20 14 20 82 0 67 -2 77 -19 82 -11 3 -21 13 -24 24 -5
17 -15 19 -105 19 -80 0 -101 3 -106 15 -3 9 -18 15 -36 15 -20 0 -30 -5 -30
-15z"/>
<path d="M4747 1404 c-4 -4 -7 -22 -7 -40 0 -23 -5 -33 -20 -37 -17 -4 -20
-14 -20 -60 0 -46 -3 -55 -20 -60 -16 -4 -20 -14 -20 -46 0 -28 -4 -41 -14
-41 -15 0 -26 -30 -26 -76 0 -23 -5 -33 -20 -37 -17 -4 -20 -14 -20 -56 0 -47
2 -51 23 -51 27 0 47 34 47 79 0 17 7 31 16 35 13 5 15 15 11 47 -4 34 -2 42
13 46 22 6 44 55 37 83 -3 13 0 20 9 20 7 0 16 12 20 28 12 56 17 66 38 84 33
27 116 24 144 -5 12 -13 22 -31 22 -40 0 -24 22 -67 34 -67 6 0 11 -18 11 -40
1 -27 8 -46 22 -59 14 -13 19 -28 16 -44 -3 -17 2 -32 16 -46 12 -12 21 -32
21 -46 0 -41 21 -75 47 -75 21 0 23 4 23 51 0 42 -3 52 -20 56 -15 4 -20 14
-20 42 0 51 -10 81 -26 81 -9 0 -14 12 -14 36 0 27 -5 37 -20 41 -17 5 -20 14
-20 60 0 46 -3 56 -19 60 -14 4 -21 15 -23 42 l-3 36 -116 3 c-63 1 -118 -1
-122 -4z"/>
<path d="M5227 1403 c-4 -3 -7 -20 -7 -37 l0 -31 327 0 328 0 0 -30 0 -30
-105 -3 c-84 -2 -107 -6 -117 -19 -10 -12 -13 -86 -13 -282 0 -146 -4 -272 -9
-280 -5 -8 -27 -15 -52 -15 -67 -2 -69 7 -69 300 0 225 -2 254 -17 272 -16 17
-34 21 -146 25 l-128 6 3 -37 3 -37 117 -3 118 -3 2 -297 3 -297 98 -3 c91 -3
99 -1 104 17 3 10 13 21 24 24 18 5 19 18 19 281 l0 276 114 0 c95 0 115 3
120 16 8 20 8 158 0 178 -5 14 -46 16 -358 16 -194 0 -356 -3 -359 -7z"/>
<path d="M5987 1403 c-4 -3 -7 -28 -7 -55 0 -39 3 -48 18 -48 10 0 25 9 35 20
16 19 29 20 206 20 166 0 190 -2 195 -16 4 -9 4 -25 1 -35 -6 -17 -18 -19
-129 -19 -136 0 -158 -8 -136 -50 11 -21 17 -21 160 -18 102 2 153 7 162 16 6
6 14 42 16 78 4 59 2 66 -16 71 -11 2 -22 13 -25 24 -5 18 -17 19 -239 19
-129 0 -238 -3 -241 -7z"/>
<path d="M1098 1276 c-46 -16 -88 -54 -88 -80 0 -10 -11 -29 -25 -42 -29 -26
-32 -64 -11 -115 14 -35 13 -47 -6 -86 -15 -31 -1 -94 23 -100 12 -4 19 -14
20 -32 1 -44 59 -84 130 -89 34 -3 72 1 89 8 35 14 100 83 100 105 0 9 8 28
18 42 13 21 17 48 17 118 0 70 -4 97 -17 118 -10 14 -18 35 -18 45 0 26 -80
101 -120 112 -45 13 -67 12 -112 -4z m125 -96 c3 -11 12 -20 20 -20 8 0 17 -9
20 -20 3 -11 12 -20 21 -20 14 0 16 -16 16 -115 0 -108 -1 -115 -20 -115 -13
0 -20 -7 -20 -20 0 -12 -7 -20 -16 -20 -9 0 -18 -9 -21 -20 -5 -18 -14 -20
-78 -20 -64 0 -73 2 -78 20 -3 11 -13 20 -24 20 -16 0 -18 9 -18 72 0 51 -4
73 -14 76 -11 4 -11 6 0 13 10 6 14 30 14 79 0 61 2 70 18 70 11 0 21 9 24 20
5 18 14 20 78 20 64 0 73 -2 78 -20z"/>
<path d="M4810 1161 c-7 -17 -10 -42 -8 -56 4 -16 1 -25 -8 -25 -17 0 -23 -10
-38 -71 -13 -47 -12 -53 5 -70 28 -28 139 -27 164 1 16 18 17 24 4 72 -12 46
-18 53 -42 56 -24 3 -27 0 -27 -27 0 -21 -5 -31 -15 -31 -10 0 -15 11 -15 35
0 28 4 35 20 35 29 0 44 35 30 71 -7 16 -16 29 -20 29 -5 0 -15 2 -23 6 -9 3
-19 -6 -27 -25z"/>
<path d="M6172 1118 c-16 -16 -15 -43 1 -56 6 -5 59 -12 117 -14 58 -3 112 -7
120 -9 12 -3 15 6 15 41 l0 45 -120 3 c-85 2 -124 -1 -133 -10z"/>
<path d="M6283 991 c-56 -3 -105 -9 -108 -13 -4 -4 -4 -19 -1 -33 l7 -26 122
3 122 3 0 35 c0 41 6 39 -142 31z"/>
<path d="M4547 883 c-4 -3 -7 -21 -7 -39 0 -23 -5 -33 -20 -37 -19 -5 -21 -12
-18 -104 l3 -98 80 0 80 0 3 36 c2 27 9 38 23 42 14 4 19 14 19 40 0 26 5 36
20 40 11 3 20 12 20 21 0 14 15 16 94 16 85 0 94 -2 99 -20 3 -11 12 -20 21
-20 13 0 16 -11 16 -54 0 -45 3 -56 19 -61 10 -3 21 -15 24 -26 5 -18 12 -20
104 -17 l98 3 3 98 c3 91 1 99 -17 104 -14 4 -21 15 -23 42 -2 28 -8 37 -25
39 -41 6 -51 -48 -17 -88 7 -8 16 -38 19 -67 7 -46 5 -52 -14 -58 -12 -4 -40
-4 -61 0 -35 6 -40 10 -46 40 -3 19 -12 39 -20 46 -8 6 -14 21 -14 33 0 12 -6
31 -14 42 -13 17 -29 19 -139 22 -77 2 -133 -1 -145 -7 -27 -14 -75 -119 -68
-147 5 -18 0 -22 -31 -27 -53 -9 -63 3 -49 61 6 26 19 61 28 77 10 20 13 37 7
53 -8 21 -38 30 -52 15z"/>
<path d="M6177 804 c-4 -4 -7 -17 -7 -30 0 -29 43 -37 172 -33 100 4 118 -1
118 -31 0 -34 -33 -40 -219 -40 -168 0 -182 1 -201 20 -11 11 -29 20 -41 20
-18 0 -20 -5 -17 -52 l3 -53 260 0 260 0 0 100 0 100 -161 3 c-88 1 -163 -1
-167 -4z"/>
<path d="M2742 713 c-1 -7 -10 -13 -19 -13 -10 0 -27 -7 -38 -16 -15 -12 -34
-13 -83 -8 l-63 6 3 -38 3 -39 98 -3 c111 -3 110 -3 104 74 -2 27 -4 43 -5 37z"/>
<path d="M3023 551 c-3 -11 -13 -21 -24 -24 -15 -4 -19 -14 -19 -51 0 -42 2
-46 24 -46 24 0 36 16 36 50 0 20 19 30 56 30 17 0 27 -8 34 -25 6 -15 17 -25
30 -25 16 0 19 -5 14 -30 -10 -46 2 -77 31 -82 24 -5 25 -3 25 44 0 41 -3 51
-20 55 -15 4 -20 14 -20 40 0 26 -5 36 -19 40 -11 3 -21 13 -24 24 -4 16 -14
19 -62 19 -48 0 -58 -3 -62 -19z"/>
<path d="M3265 560 c-4 -6 -3 -61 1 -123 l6 -113 -28 1 c-31 0 -40 -18 -30
-61 5 -17 13 -24 31 -24 26 0 30 -13 19 -58 -7 -23 -47 -32 -59 -12 -10 16
-65 12 -65 -4 0 -25 12 -46 25 -46 7 0 15 -9 18 -20 4 -15 14 -20 42 -20 28 0
38 5 42 20 3 11 11 20 18 20 7 0 15 -9 18 -20 7 -27 74 -29 84 -2 4 9 15 23
25 30 13 10 18 26 18 63 0 42 3 49 19 49 18 0 19 -5 14 -56 -5 -50 -4 -56 15
-60 11 -3 22 -15 25 -26 5 -16 13 -19 44 -16 36 3 38 5 39 39 1 32 -1 35 -21
31 -26 -5 -55 29 -55 66 0 12 -7 25 -15 28 -8 4 -15 14 -15 24 0 28 -26 43
-64 36 -39 -8 -46 -20 -46 -86 0 -60 -20 -82 -44 -48 -13 18 -16 51 -16 163 0
182 -2 179 113 173 62 -3 92 -9 105 -21 10 -9 28 -17 40 -17 29 0 32 49 3 57
-11 3 -21 13 -24 24 -5 18 -16 19 -140 19 -82 0 -138 -4 -142 -10z"/>
<path d="M4947 564 c-4 -4 -7 -18 -7 -31 0 -17 6 -23 23 -23 12 0 32 -7 45
-15 12 -9 29 -15 39 -13 13 2 17 -5 17 -32 1 -28 5 -36 23 -38 17 -2 24 3 28
21 13 49 53 71 137 75 74 4 77 3 104 -27 15 -17 36 -31 46 -31 27 0 24 -47 -3
-55 -12 -4 -26 -2 -32 4 -6 6 -21 11 -34 11 -18 0 -23 6 -23 24 0 46 -73 50
-114 7 -22 -23 -27 -36 -22 -55 4 -17 13 -26 26 -26 11 0 20 -6 20 -14 0 -11
13 -11 82 0 55 9 86 10 93 3 16 -16 19 -151 3 -173 -13 -16 -17 -17 -36 -5
-18 11 -24 11 -39 -3 -11 -10 -41 -17 -80 -20 -53 -3 -63 0 -67 15 -2 10 -13
21 -24 24 -11 3 -26 18 -32 34 -9 21 -19 29 -36 29 -20 0 -24 -5 -24 -30 0
-22 -5 -30 -18 -30 -11 0 -27 -9 -37 -19 -17 -20 -17 -20 -45 1 -16 11 -36 18
-44 15 -23 -9 -21 -58 3 -64 11 -3 21 -14 24 -25 5 -16 13 -19 44 -16 30 2 39
7 41 25 2 15 8 20 18 16 10 -4 17 2 21 16 7 27 29 27 36 1 4 -15 14 -20 40
-20 26 0 36 -5 40 -20 5 -18 13 -20 121 -18 100 1 117 4 121 19 3 9 15 19 25
22 19 5 20 14 20 136 0 120 -2 132 -20 143 -16 10 -20 24 -20 66 0 45 -3 55
-19 59 -11 3 -21 13 -24 24 -5 17 -15 19 -122 19 -107 0 -117 -2 -122 -19 -3
-11 -13 -21 -24 -24 -10 -3 -19 -12 -19 -21 0 -9 -6 -16 -14 -16 -10 0 -16 13
-18 38 l-3 37 -55 3 c-31 2 -59 0 -63 -4z"/>
<path d="M5549 566 c-3 -3 -3 -377 1 -438 0 -5 6 -8 14 -8 7 0 16 -9 19 -20 4
-15 14 -20 40 -20 39 0 47 12 46 63 0 18 -3 26 -6 20 -9 -23 -41 -14 -63 17
-20 29 -22 40 -18 164 3 149 12 171 60 164 27 -4 29 -3 26 26 -3 30 -5 31 -58
34 -31 2 -58 1 -61 -2z"/>
<path d="M6103 551 c-3 -11 -13 -21 -24 -24 -14 -4 -19 -14 -19 -36 0 -26 4
-31 24 -31 14 0 32 10 41 23 14 20 24 22 98 22 75 0 84 -2 110 -26 26 -26 37
-72 18 -83 -5 -3 -28 12 -50 35 -36 34 -47 40 -79 37 -27 -2 -40 -9 -47 -25
-5 -13 -15 -23 -22 -23 -16 0 -22 -31 -20 -97 2 -47 5 -54 48 -92 l46 -40 24
25 c13 14 36 33 52 42 15 9 30 25 34 37 5 17 8 15 18 -15 11 -29 10 -39 -1
-57 -8 -12 -14 -29 -14 -38 0 -9 -9 -15 -24 -15 -14 0 -28 -4 -31 -10 -3 -5
-31 -10 -62 -10 -44 0 -63 5 -89 25 -18 14 -39 25 -47 25 -9 0 -12 9 -10 27 6
35 -12 83 -30 83 -16 0 -29 -57 -20 -89 3 -12 11 -21 19 -21 8 0 14 -15 16
-38 3 -35 5 -37 39 -40 27 -2 38 -9 42 -23 5 -18 13 -20 83 -17 69 3 79 5 84
23 3 11 12 20 20 19 8 0 22 -2 31 -2 9 -1 19 -11 22 -23 5 -17 12 -20 43 -17
30 2 39 8 44 26 3 13 8 23 13 23 4 -1 12 -1 17 -1 7 0 10 29 8 78 l-3 77 -36
3 c-27 2 -38 9 -42 23 -3 10 -12 19 -21 19 -23 0 -20 27 4 33 17 4 20 14 20
62 0 48 -3 58 -20 62 -11 3 -20 12 -20 20 0 8 -9 17 -19 20 -11 3 -21 13 -24
24 -5 17 -15 19 -122 19 -107 0 -117 -2 -122 -19z"/>
<path d="M5780 285 c0 -98 -16 -135 -57 -135 -21 0 -24 -4 -21 -33 3 -29 6
-32 40 -35 29 -2 38 1 42 16 4 11 16 22 26 25 15 4 20 14 20 41 0 25 4 36 15
36 11 0 15 -11 15 -36 0 -27 5 -37 20 -41 11 -3 20 -11 20 -18 0 -17 23 -25
75 -25 46 0 55 10 55 57 0 25 -2 25 -44 20 -40 -6 -46 -4 -62 21 -10 15 -23
32 -30 37 -7 6 -14 21 -16 35 -2 16 -10 26 -24 28 -16 2 -20 9 -16 32 3 24 -1
31 -27 44 l-31 17 0 -86z"/>
<path d="M3036 247 c-24 -19 -28 -29 -24 -55 2 -18 0 -33 -6 -35 -14 -5 -56
14 -56 25 0 4 -9 8 -20 8 -11 0 -20 -4 -20 -10 0 -6 -26 -10 -59 -10 -33 0
-63 5 -66 10 -10 17 -41 11 -60 -10 l-19 -21 -24 31 c-29 37 -49 38 -58 5 -4
-18 -13 -25 -29 -25 -13 0 -27 5 -30 10 -3 6 -19 10 -36 10 -25 0 -29 -4 -29
-28 0 -42 21 -63 67 -69 35 -5 43 -2 55 16 16 26 34 27 41 1 7 -29 77 -29 84
0 7 26 25 26 41 0 11 -18 22 -20 116 -17 58 1 107 5 110 8 5 4 13 37 15 62 1
4 8 7 17 7 9 0 18 9 21 19 4 14 15 21 42 23 69 6 44 68 -27 68 -9 0 -30 -11
-46 -23z"/>
</g>
</svg>
